<mxfile host="app.diagrams.net" modified="2022-11-15T19:28:14.455Z" agent="5.0 (Windows NT 10.0; Win64; x64) AppleWebKit/537.36 (KHTML, like Gecko) Chrome/105.0.0.0 Safari/537.36 OPR/91.0.4516.106" etag="yD47O5FGNVTizsIURwQ2" version="20.5.3" type="github">
  <diagram id="NzK_nbc81mDynmnTwXdC" name="Страница 1">
    <mxGraphModel dx="569" dy="417" grid="1" gridSize="10" guides="1" tooltips="1" connect="1" arrows="1" fold="1" page="1" pageScale="1" pageWidth="827" pageHeight="1169" math="0" shadow="0">
      <root>
        <mxCell id="0" />
        <mxCell id="1" parent="0" />
        <mxCell id="yt_BXWz7SB9tolqMl9cl-17" style="edgeStyle=orthogonalEdgeStyle;rounded=0;orthogonalLoop=1;jettySize=auto;html=1;entryX=1;entryY=0.5;entryDx=0;entryDy=0;exitX=0.5;exitY=0;exitDx=0;exitDy=0;exitPerimeter=0;" edge="1" parent="1" source="yt_BXWz7SB9tolqMl9cl-4" target="yt_BXWz7SB9tolqMl9cl-12">
          <mxGeometry relative="1" as="geometry" />
        </mxCell>
        <mxCell id="yt_BXWz7SB9tolqMl9cl-19" style="edgeStyle=orthogonalEdgeStyle;rounded=0;orthogonalLoop=1;jettySize=auto;html=1;exitX=1;exitY=0.3333333333333333;exitDx=0;exitDy=0;exitPerimeter=0;entryX=0.5;entryY=1;entryDx=0;entryDy=0;" edge="1" parent="1" source="yt_BXWz7SB9tolqMl9cl-4" target="yt_BXWz7SB9tolqMl9cl-18">
          <mxGeometry relative="1" as="geometry" />
        </mxCell>
        <mxCell id="yt_BXWz7SB9tolqMl9cl-25" style="edgeStyle=orthogonalEdgeStyle;rounded=0;orthogonalLoop=1;jettySize=auto;html=1;exitX=1;exitY=0.3333333333333333;exitDx=0;exitDy=0;exitPerimeter=0;entryX=0.5;entryY=1;entryDx=0;entryDy=0;" edge="1" parent="1" source="yt_BXWz7SB9tolqMl9cl-4" target="yt_BXWz7SB9tolqMl9cl-22">
          <mxGeometry relative="1" as="geometry" />
        </mxCell>
        <mxCell id="yt_BXWz7SB9tolqMl9cl-4" value="Читатель&lt;br&gt;" style="shape=umlActor;verticalLabelPosition=bottom;verticalAlign=top;html=1;outlineConnect=0;" vertex="1" parent="1">
          <mxGeometry x="160" y="310" width="30" height="60" as="geometry" />
        </mxCell>
        <mxCell id="yt_BXWz7SB9tolqMl9cl-14" style="edgeStyle=orthogonalEdgeStyle;rounded=0;orthogonalLoop=1;jettySize=auto;html=1;exitX=0;exitY=0.3333333333333333;exitDx=0;exitDy=0;exitPerimeter=0;entryX=0.5;entryY=0;entryDx=0;entryDy=0;" edge="1" parent="1" source="yt_BXWz7SB9tolqMl9cl-6" target="yt_BXWz7SB9tolqMl9cl-12">
          <mxGeometry relative="1" as="geometry">
            <Array as="points">
              <mxPoint x="100" y="100" />
            </Array>
          </mxGeometry>
        </mxCell>
        <mxCell id="yt_BXWz7SB9tolqMl9cl-21" style="edgeStyle=orthogonalEdgeStyle;rounded=0;orthogonalLoop=1;jettySize=auto;html=1;exitX=1;exitY=0.3333333333333333;exitDx=0;exitDy=0;exitPerimeter=0;" edge="1" parent="1" source="yt_BXWz7SB9tolqMl9cl-6" target="yt_BXWz7SB9tolqMl9cl-20">
          <mxGeometry relative="1" as="geometry" />
        </mxCell>
        <mxCell id="yt_BXWz7SB9tolqMl9cl-24" style="edgeStyle=orthogonalEdgeStyle;rounded=0;orthogonalLoop=1;jettySize=auto;html=1;entryX=0;entryY=0.5;entryDx=0;entryDy=0;" edge="1" parent="1" source="yt_BXWz7SB9tolqMl9cl-6" target="yt_BXWz7SB9tolqMl9cl-22">
          <mxGeometry relative="1" as="geometry">
            <mxPoint x="390" y="230" as="targetPoint" />
            <Array as="points">
              <mxPoint x="380" y="100" />
              <mxPoint x="380" y="270" />
            </Array>
          </mxGeometry>
        </mxCell>
        <mxCell id="yt_BXWz7SB9tolqMl9cl-27" style="edgeStyle=orthogonalEdgeStyle;rounded=0;orthogonalLoop=1;jettySize=auto;html=1;entryX=0.5;entryY=0;entryDx=0;entryDy=0;" edge="1" parent="1" source="yt_BXWz7SB9tolqMl9cl-6" target="yt_BXWz7SB9tolqMl9cl-26">
          <mxGeometry relative="1" as="geometry">
            <Array as="points">
              <mxPoint x="175" y="100" />
            </Array>
          </mxGeometry>
        </mxCell>
        <mxCell id="yt_BXWz7SB9tolqMl9cl-6" value="Библиотекарь" style="shape=umlActor;verticalLabelPosition=bottom;verticalAlign=top;html=1;outlineConnect=0;" vertex="1" parent="1">
          <mxGeometry x="270" y="80" width="30" height="60" as="geometry" />
        </mxCell>
        <mxCell id="yt_BXWz7SB9tolqMl9cl-12" value="Поиск книги" style="ellipse;whiteSpace=wrap;html=1;" vertex="1" parent="1">
          <mxGeometry x="60" y="230" width="80" height="40" as="geometry" />
        </mxCell>
        <mxCell id="yt_BXWz7SB9tolqMl9cl-18" value="Сделать заказ" style="ellipse;whiteSpace=wrap;html=1;" vertex="1" parent="1">
          <mxGeometry x="270" y="220" width="100" height="40" as="geometry" />
        </mxCell>
        <mxCell id="yt_BXWz7SB9tolqMl9cl-20" value="Добавить книгу" style="ellipse;whiteSpace=wrap;html=1;" vertex="1" parent="1">
          <mxGeometry x="400" y="150" width="100" height="50" as="geometry" />
        </mxCell>
        <mxCell id="yt_BXWz7SB9tolqMl9cl-22" value="Посмотреть информацию о книге" style="ellipse;whiteSpace=wrap;html=1;" vertex="1" parent="1">
          <mxGeometry x="430" y="240" width="90" height="60" as="geometry" />
        </mxCell>
        <mxCell id="yt_BXWz7SB9tolqMl9cl-26" value="Выдать книгу читателю" style="ellipse;whiteSpace=wrap;html=1;" vertex="1" parent="1">
          <mxGeometry x="130" y="150" width="90" height="50" as="geometry" />
        </mxCell>
      </root>
    </mxGraphModel>
  </diagram>
</mxfile>
